<svg xmlns="http://www.w3.org/2000/svg" width="576" height="448" viewBox="0 0 576 448" shape-rendering="crispEdges">
  <rect x="0" y="0" width="576" height="448" fill="#00B140"/>
  <rect x="512" y="96" width="19.2" height="19.2" fill="#8B5CF6"/>
  <rect x="96" y="128" width="19.2" height="19.2" fill="#E94F73"/>
  <rect x="256" y="192" width="19.2" height="19.2" fill="#F2B441"/>
  <rect x="32" y="352" width="19.2" height="19.2" fill="#3F6C51"/>
  <rect x="0" y="0" width="19.2" height="19.2" fill="#3F6C51"/>
  <rect x="480" y="160" width="19.2" height="19.2" fill="#4FA9E9"/>
  <rect x="192" y="352" width="19.2" height="19.2" fill="#8B5CF6"/>
  <rect x="384" y="320" width="19.2" height="19.2" fill="#F2B441"/>
  <rect x="0" y="32" width="19.2" height="19.2" fill="#4FA9E9"/>
  <rect x="224" y="192" width="19.2" height="19.2" fill="#8B5CF6"/>
  <rect x="128" y="416" width="19.2" height="19.2" fill="#3F6C51"/>
  <rect x="544" y="0" width="19.2" height="19.2" fill="#4FA9E9"/>
  <rect x="512" y="128" width="19.2" height="19.2" fill="#8B5CF6"/>
  <rect x="64" y="384" width="19.2" height="19.2" fill="#E94F73"/>
  <rect x="512" y="288" width="19.2" height="19.2" fill="#4FA9E9"/>
  <rect x="0" y="0" width="19.2" height="19.2" fill="#4FA9E9"/>
  <rect x="544" y="352" width="19.2" height="19.2" fill="#8B5CF6"/>
  <rect x="96" y="160" width="19.2" height="19.2" fill="#8B5CF6"/>
  <rect x="544" y="128" width="19.2" height="19.2" fill="#F2B441"/>
  <rect x="128" y="256" width="19.2" height="19.2" fill="#F2B441"/>
  <rect x="32" y="192" width="19.2" height="19.2" fill="#F2B441"/>
  <rect x="32" y="352" width="19.2" height="19.2" fill="#F2B441"/>
  <rect x="160" y="128" width="256" height="192" fill="#CD7C5F"/>
  <rect x="96" y="192" width="64" height="64" fill="#CD7C5F"/>
  <rect x="416" y="192" width="64" height="64" fill="#CD7C5F"/>
  <rect x="160" y="320" width="32" height="64" fill="#CD7C5F"/>
  <rect x="224" y="320" width="32" height="64" fill="#CD7C5F"/>
  <rect x="320" y="320" width="32" height="64" fill="#CD7C5F"/>
  <rect x="384" y="320" width="32" height="64" fill="#CD7C5F"/>
  <rect x="192" y="160" width="8" height="8" fill="#141414"/>
  <rect x="200" y="160" width="8" height="8" fill="#141414"/>
  <rect x="208" y="160" width="8" height="8" fill="#141414"/>
  <rect x="216" y="160" width="8" height="8" fill="#141414"/>
  <rect x="192" y="168" width="8" height="8" fill="#141414"/>
  <rect x="200" y="168" width="8" height="8" fill="#FFFFFF"/>
  <rect x="208" y="168" width="8" height="8" fill="#141414"/>
  <rect x="216" y="168" width="8" height="8" fill="#141414"/>
  <rect x="192" y="176" width="8" height="8" fill="#141414"/>
  <rect x="200" y="176" width="8" height="8" fill="#141414"/>
  <rect x="208" y="176" width="8" height="8" fill="#141414"/>
  <rect x="216" y="176" width="8" height="8" fill="#141414"/>
  <rect x="192" y="184" width="8" height="8" fill="#141414"/>
  <rect x="200" y="184" width="8" height="8" fill="#141414"/>
  <rect x="208" y="184" width="8" height="8" fill="#141414"/>
  <rect x="216" y="184" width="8" height="8" fill="#141414"/>
  <rect x="352" y="160" width="8" height="8" fill="#141414"/>
  <rect x="360" y="160" width="8" height="8" fill="#141414"/>
  <rect x="368" y="160" width="8" height="8" fill="#141414"/>
  <rect x="376" y="160" width="8" height="8" fill="#141414"/>
  <rect x="352" y="168" width="8" height="8" fill="#141414"/>
  <rect x="360" y="168" width="8" height="8" fill="#141414"/>
  <rect x="368" y="168" width="8" height="8" fill="#FFFFFF"/>
  <rect x="376" y="168" width="8" height="8" fill="#141414"/>
  <rect x="352" y="176" width="8" height="8" fill="#141414"/>
  <rect x="360" y="176" width="8" height="8" fill="#141414"/>
  <rect x="368" y="176" width="8" height="8" fill="#141414"/>
  <rect x="376" y="176" width="8" height="8" fill="#141414"/>
  <rect x="352" y="184" width="8" height="8" fill="#141414"/>
  <rect x="360" y="184" width="8" height="8" fill="#141414"/>
  <rect x="368" y="184" width="8" height="8" fill="#141414"/>
  <rect x="376" y="184" width="8" height="8" fill="#141414"/>
  <rect x="272" y="-16" width="16" height="16" fill="#E94F73"/>
  <rect x="288" y="-16" width="16" height="16" fill="#E94F73"/>
  <rect x="272" y="0" width="16" height="16" fill="#4FA9E9"/>
  <rect x="288" y="0" width="16" height="16" fill="#4FA9E9"/>
  <rect x="256" y="16" width="16" height="16" fill="#4FA9E9"/>
  <rect x="272" y="16" width="16" height="16" fill="#4FA9E9"/>
  <rect x="288" y="16" width="16" height="16" fill="#4FA9E9"/>
  <rect x="304" y="16" width="16" height="16" fill="#4FA9E9"/>
  <rect x="256" y="32" width="16" height="16" fill="#F2B441"/>
  <rect x="272" y="32" width="16" height="16" fill="#F2B441"/>
  <rect x="288" y="32" width="16" height="16" fill="#F2B441"/>
  <rect x="304" y="32" width="16" height="16" fill="#F2B441"/>
  <rect x="240" y="48" width="16" height="16" fill="#F2B441"/>
  <rect x="256" y="48" width="16" height="16" fill="#F2B441"/>
  <rect x="272" y="48" width="16" height="16" fill="#F2B441"/>
  <rect x="288" y="48" width="16" height="16" fill="#F2B441"/>
  <rect x="304" y="48" width="16" height="16" fill="#F2B441"/>
  <rect x="320" y="48" width="16" height="16" fill="#F2B441"/>
  <rect x="240" y="64" width="16" height="16" fill="#8B5CF6"/>
  <rect x="256" y="64" width="16" height="16" fill="#8B5CF6"/>
  <rect x="272" y="64" width="16" height="16" fill="#8B5CF6"/>
  <rect x="288" y="64" width="16" height="16" fill="#8B5CF6"/>
  <rect x="304" y="64" width="16" height="16" fill="#8B5CF6"/>
  <rect x="320" y="64" width="16" height="16" fill="#8B5CF6"/>
  <rect x="224" y="80" width="16" height="16" fill="#8B5CF6"/>
  <rect x="240" y="80" width="16" height="16" fill="#8B5CF6"/>
  <rect x="256" y="80" width="16" height="16" fill="#8B5CF6"/>
  <rect x="272" y="80" width="16" height="16" fill="#8B5CF6"/>
  <rect x="288" y="80" width="16" height="16" fill="#8B5CF6"/>
  <rect x="304" y="80" width="16" height="16" fill="#8B5CF6"/>
  <rect x="320" y="80" width="16" height="16" fill="#8B5CF6"/>
  <rect x="336" y="80" width="16" height="16" fill="#8B5CF6"/>
  <rect x="224" y="96" width="16" height="16" fill="#E94F73"/>
  <rect x="240" y="96" width="16" height="16" fill="#E94F73"/>
  <rect x="256" y="96" width="16" height="16" fill="#E94F73"/>
  <rect x="272" y="96" width="16" height="16" fill="#E94F73"/>
  <rect x="288" y="96" width="16" height="16" fill="#E94F73"/>
  <rect x="304" y="96" width="16" height="16" fill="#E94F73"/>
  <rect x="320" y="96" width="16" height="16" fill="#E94F73"/>
  <rect x="336" y="96" width="16" height="16" fill="#E94F73"/>
  <rect x="208" y="112" width="16" height="16" fill="#F7F4ED"/>
  <rect x="224" y="112" width="16" height="16" fill="#F7F4ED"/>
  <rect x="240" y="112" width="16" height="16" fill="#F7F4ED"/>
  <rect x="256" y="112" width="16" height="16" fill="#F7F4ED"/>
  <rect x="272" y="112" width="16" height="16" fill="#F7F4ED"/>
  <rect x="288" y="112" width="16" height="16" fill="#F7F4ED"/>
  <rect x="304" y="112" width="16" height="16" fill="#F7F4ED"/>
  <rect x="320" y="112" width="16" height="16" fill="#F7F4ED"/>
  <rect x="336" y="112" width="16" height="16" fill="#F7F4ED"/>
  <rect x="352" y="112" width="16" height="16" fill="#F7F4ED"/>
  <rect x="480" y="32" width="16" height="16" fill="#E94F73"/>
  <rect x="496" y="32" width="16" height="16" fill="#E94F73"/>
  <rect x="512" y="32" width="16" height="16" fill="#E94F73"/>
  <rect x="528" y="32" width="16" height="16" fill="#E94F73"/>
  <rect x="464" y="48" width="16" height="16" fill="#E94F73"/>
  <rect x="480" y="48" width="16" height="16" fill="#E94F73"/>
  <rect x="496" y="48" width="16" height="16" fill="#F58BA4"/>
  <rect x="512" y="48" width="16" height="16" fill="#E94F73"/>
  <rect x="528" y="48" width="16" height="16" fill="#E94F73"/>
  <rect x="544" y="48" width="16" height="16" fill="#E94F73"/>
  <rect x="448" y="64" width="16" height="16" fill="#E94F73"/>
  <rect x="464" y="64" width="16" height="16" fill="#E94F73"/>
  <rect x="480" y="64" width="16" height="16" fill="#E94F73"/>
  <rect x="496" y="64" width="16" height="16" fill="#F58BA4"/>
  <rect x="512" y="64" width="16" height="16" fill="#E94F73"/>
  <rect x="528" y="64" width="16" height="16" fill="#E94F73"/>
  <rect x="544" y="64" width="16" height="16" fill="#E94F73"/>
  <rect x="560" y="64" width="16" height="16" fill="#E94F73"/>
  <rect x="448" y="80" width="16" height="16" fill="#E94F73"/>
  <rect x="464" y="80" width="16" height="16" fill="#E94F73"/>
  <rect x="480" y="80" width="16" height="16" fill="#E94F73"/>
  <rect x="496" y="80" width="16" height="16" fill="#E94F73"/>
  <rect x="512" y="80" width="16" height="16" fill="#E94F73"/>
  <rect x="528" y="80" width="16" height="16" fill="#E94F73"/>
  <rect x="544" y="80" width="16" height="16" fill="#E94F73"/>
  <rect x="560" y="80" width="16" height="16" fill="#E94F73"/>
  <rect x="448" y="96" width="16" height="16" fill="#E94F73"/>
  <rect x="464" y="96" width="16" height="16" fill="#E94F73"/>
  <rect x="480" y="96" width="16" height="16" fill="#E94F73"/>
  <rect x="496" y="96" width="16" height="16" fill="#E94F73"/>
  <rect x="512" y="96" width="16" height="16" fill="#E94F73"/>
  <rect x="528" y="96" width="16" height="16" fill="#E94F73"/>
  <rect x="544" y="96" width="16" height="16" fill="#E94F73"/>
  <rect x="560" y="96" width="16" height="16" fill="#E94F73"/>
  <rect x="464" y="112" width="16" height="16" fill="#E94F73"/>
  <rect x="480" y="112" width="16" height="16" fill="#E94F73"/>
  <rect x="496" y="112" width="16" height="16" fill="#E94F73"/>
  <rect x="512" y="112" width="16" height="16" fill="#E94F73"/>
  <rect x="528" y="112" width="16" height="16" fill="#E94F73"/>
  <rect x="544" y="112" width="16" height="16" fill="#E94F73"/>
  <rect x="480" y="128" width="16" height="16" fill="#E94F73"/>
  <rect x="496" y="128" width="16" height="16" fill="#E94F73"/>
  <rect x="512" y="128" width="16" height="16" fill="#E94F73"/>
  <rect x="528" y="128" width="16" height="16" fill="#E94F73"/>
  <rect x="496" y="144" width="16" height="16" fill="#E94F73"/>
  <rect x="512" y="144" width="16" height="16" fill="#E94F73"/>
  <rect x="496" y="160" width="16" height="16" fill="#8A8A8A"/>
  <rect x="496" y="176" width="16" height="16" fill="#8A8A8A"/>
  <rect x="480" y="192" width="16" height="16" fill="#8A8A8A"/>
  <rect x="480" y="208" width="16" height="16" fill="#8A8A8A"/>
</svg>
